<svg version="1.1" id="Layer_1" xmlns="http://www.w3.org/2000/svg" xmlns:xlink="http://www.w3.org/1999/xlink" x="0px" y="0px"
	 width="100%" viewBox="0 0 1024 1024" enable-background="new 0 0 1024 1024" xml:space="preserve">
<path fill="#FEFAE0" opacity="1.000000" stroke="none" 
	d="
M627.119507,172.772003 
	C682.558838,193.250656 729.530090,225.400375 767.547363,270.172791 
	C800.979004,309.544617 824.277527,354.223022 835.627075,404.838013 
	C840.065796,424.633270 843.089783,444.603455 844.440247,464.900330 
	C848.578735,527.102234 837.015869,586.149353 809.477661,641.993042 
	C784.529602,692.584290 749.126831,734.426086 702.938416,766.947388 
	C663.540222,794.687866 620.015015,812.876892 572.739807,821.881592 
	C549.807678,826.249634 526.549744,828.307190 503.204498,827.141296 
	C439.916656,823.980408 381.641113,805.184448 329.104706,769.556824 
	C276.662262,733.993164 237.463623,687.122620 211.499054,629.323914 
	C197.636047,598.463989 188.754364,566.170166 184.580048,532.553101 
	C182.566467,516.337158 181.353943,500.106171 181.794922,483.782379 
	C183.875534,406.762054 207.305084,337.311432 256.014740,277.098816 
	C292.345795,232.188080 337.376343,198.716614 390.686493,176.348907 
	C412.416992,167.231308 434.787903,160.271408 457.959045,156.171341 
	C482.605927,151.810135 507.430176,150.860992 532.487671,152.414505 
	C557.559998,153.968933 581.962646,158.448608 605.938599,165.621017 
	C612.948792,167.718124 619.815247,170.296036 627.119507,172.772003 
M295.236267,578.247131 
	C287.390137,567.436584 285.310669,567.089294 276.562134,574.137390 
	C273.374817,576.705200 273.251373,578.757080 275.478943,582.020325 
	C280.454956,589.309692 285.096710,596.828064 289.838837,604.275940 
	C292.091705,607.814209 291.430359,611.128662 288.264587,613.573120 
	C285.079773,616.032166 281.885071,614.952271 279.347260,612.244141 
	C277.535797,610.310974 276.105408,608.026306 274.421814,605.966431 
	C271.508759,602.402344 269.904785,597.880005 266.534332,594.728333 
	C264.502350,595.476013 264.381958,596.973999 264.297272,598.500549 
	C263.795563,607.544739 264.462463,616.448120 267.357849,625.107239 
	C277.743469,656.167358 295.912262,681.705261 321.764893,701.779480 
	C328.559143,707.055176 329.027191,710.045105 323.859894,716.666931 
	C314.285339,728.936584 314.763123,732.478149 326.795074,741.987549 
	C348.269623,758.959961 372.149445,771.749512 397.126343,782.636230 
	C399.330566,783.597046 401.407349,785.224976 404.052246,784.950256 
	C405.292023,783.009460 404.774200,780.962219 404.776672,779.019287 
	C404.798950,761.519958 404.675201,744.020081 404.788940,726.521606 
	C404.842712,718.246887 411.948883,713.539124 418.642212,717.084534 
	C422.594574,719.177917 423.312103,722.852966 423.310760,726.863220 
	C423.304260,746.529175 423.471527,766.197632 423.184387,785.859436 
	C423.114227,790.663635 424.889709,792.514221 429.249268,793.798401 
	C451.699524,800.412109 474.638123,804.328369 497.935272,805.589966 
	C522.768005,806.934631 547.468750,804.950378 571.915527,800.191711 
	C593.398254,796.010132 614.141663,789.386047 634.308594,780.990723 
	C653.282593,773.092041 671.222473,763.228882 688.106873,751.481384 
	C693.047241,748.044128 694.236511,743.863953 691.942566,738.093079 
	C690.687683,734.936523 688.611084,732.324402 686.359375,729.863037 
	C683.857605,727.128235 683.920166,724.214478 685.361511,721.073303 
	C686.693115,718.171448 689.172729,717.541992 692.007080,717.741760 
	C698.588684,718.205383 703.914062,715.579834 708.825256,711.439392 
	C733.114807,690.961853 751.270447,665.941589 763.470093,636.720459 
	C771.075562,618.503723 776.630493,599.762756 773.811951,579.516724 
	C769.093628,545.624695 734.604858,531.291199 707.612061,552.263184 
	C692.238586,564.207581 682.713501,580.718994 673.556274,597.422546 
	C664.711426,613.556274 658.524658,630.797607 652.435852,648.091309 
	C650.309326,654.131165 646.090576,656.359253 641.441040,654.645569 
	C636.253113,652.733459 634.451599,648.627930 636.609985,642.378479 
	C639.544373,633.881836 642.625366,625.424194 646.001770,617.095093 
	C649.211121,609.177856 649.151367,608.343506 641.919128,603.438599 
	C640.679138,602.597656 639.281860,601.970459 638.110291,601.049683 
	C633.000061,597.033264 627.890503,596.771179 621.829712,599.443420 
	C615.111938,602.405212 608.704590,605.965332 602.000305,608.896362 
	C596.811401,611.164917 593.119385,609.649902 590.820312,604.974487 
	C588.818970,600.904663 590.299805,596.831299 594.949158,594.077454 
	C596.804260,592.978638 598.819824,592.141479 600.791748,591.250244 
	C639.537170,573.739197 664.513977,544.659912 675.029053,503.280884 
	C676.909180,495.882324 676.579163,489.201019 673.265808,482.063873 
	C664.045471,462.202545 657.934753,441.241730 653.783936,419.778595 
	C649.086243,395.487396 646.244080,370.864532 641.049072,346.653198 
	C640.095642,342.209503 642.211548,339.161255 645.902588,337.219696 
	C652.071289,333.974854 657.847595,337.573547 659.255798,345.770294 
	C662.713623,365.896606 666.229187,386.018982 669.237854,406.215027 
	C673.904297,437.539307 684.111023,466.560852 703.407532,492.012756 
	C704.990051,494.100128 706.126465,496.925293 709.390320,496.607574 
	C712.881348,496.267670 713.578979,493.158264 714.615051,490.576996 
	C718.285645,481.432800 722.794006,472.740021 727.824768,464.259399 
	C734.303162,453.338348 742.631287,443.730927 749.365845,432.996887 
	C755.218750,423.668182 759.658142,413.688538 760.391357,402.781860 
	C761.178833,391.068573 757.656555,379.939362 750.979492,370.252563 
	C729.363037,338.892334 701.199890,314.931000 667.346069,297.642120 
	C663.079163,295.462982 658.387695,293.895905 653.565857,293.388855 
	C648.817566,292.889465 647.307312,294.757782 648.793762,299.023560 
	C650.288208,303.312317 649.908264,307.272156 645.982300,309.618439 
	C642.193115,311.882935 638.402771,310.717621 635.046387,307.672424 
	C614.391968,288.933319 590.780701,275.320435 564.185913,266.825348 
	C539.480530,258.933746 514.148743,256.612457 488.720032,260.726227 
	C451.543030,266.740601 418.571106,282.315002 390.750977,308.104767 
	C387.499725,311.118713 383.718231,311.501099 380.201416,309.229797 
	C376.479218,306.825867 376.069092,303.123627 377.833252,299.064697 
	C379.722351,294.718323 378.573517,293.053619 373.733337,293.350464 
	C368.200378,293.689819 362.850861,295.142700 357.912781,297.615387 
	C326.966888,313.111145 301.648773,335.411987 280.303009,362.401123 
	C270.590057,374.682007 264.953857,388.422089 266.278351,404.465881 
	C267.209869,415.750031 271.609985,425.770996 277.806274,434.953430 
	C290.383911,453.592560 303.689484,471.751984 312.155151,492.849060 
	C314.271973,498.124329 318.053680,498.296936 321.477386,493.413727 
	C329.132751,482.494812 336.236237,471.228363 342.020477,459.166779 
	C354.325348,433.508118 357.779266,405.699158 361.813446,378.036530 
	C363.517426,366.352234 364.548218,354.553497 367.909332,343.167175 
	C370.185486,335.456451 377.329010,333.333588 382.939453,338.598633 
	C385.937164,341.411835 385.671906,344.923767 384.874939,348.378174 
	C380.944977,365.412811 378.825348,382.752808 376.402496,400.020294 
	C372.257751,429.559937 364.546021,458.010986 351.987427,485.078827 
	C349.554962,490.321533 348.928711,495.284180 350.283447,500.982269 
	C359.233917,538.629456 379.307709,567.837830 414.071136,586.066345 
	C419.233124,588.773071 424.618805,591.065491 429.704468,593.901978 
	C434.301056,596.465576 435.484070,601.101562 433.150513,605.447632 
	C430.859161,609.715027 427.018188,610.872131 422.094208,608.646301 
	C417.237183,606.450684 412.282166,604.411560 407.630310,601.834229 
	C395.430847,595.075073 384.929199,596.878235 375.195374,606.842773 
	C372.094788,610.016846 371.177429,612.238159 373.443695,616.219055 
	C378.638458,625.344299 383.105011,634.836609 386.322418,644.883606 
	C387.759979,649.372803 386.112762,652.354553 382.202057,654.315308 
	C378.156128,656.343933 374.956146,654.662903 372.772736,651.274902 
	C370.983795,648.499023 369.641846,645.397461 368.378357,642.326538 
	C359.774384,621.414185 347.750549,602.770325 331.482788,587.007324 
	C324.452667,580.195374 316.773499,574.191833 306.940186,570.186279 
	C307.199371,573.033569 308.511505,574.497559 309.680664,576.048279 
	C312.604218,579.926025 315.135315,584.047546 316.706116,588.661255 
	C318.167938,592.954834 316.400360,597.190430 312.531219,598.626526 
	C308.043701,600.292175 306.138123,597.117981 304.538452,593.885803 
	C301.944427,588.644592 298.934998,583.663391 295.236267,578.247131 
M242.922897,333.409760 
	C218.897202,375.746521 206.471603,421.550751 203.505081,469.857269 
	C201.530182,502.016083 204.423874,533.922058 211.925461,565.400757 
	C225.962677,624.304626 254.337357,675.001038 297.719482,717.269165 
	C298.981689,718.498962 300.017090,720.193726 302.122162,720.115051 
	C307.878723,712.230103 307.872681,712.236267 301.287872,705.785522 
	C277.542236,682.523560 259.367310,655.761292 250.615509,623.358887 
	C245.314331,603.731934 245.911133,584.900818 259.685181,568.110535 
	C271.765137,553.385254 292.848175,547.161621 310.573975,553.463196 
	C324.381561,558.371704 334.832153,567.831360 344.686737,578.079346 
	C349.875214,583.474976 354.549347,589.362976 359.525879,594.966309 
	C360.554840,596.124817 361.936829,598.283142 363.556427,596.646362 
	C368.109467,592.045105 373.506775,588.468628 379.207062,583.920105 
	C368.419922,573.363708 359.160858,562.343445 351.617065,549.918396 
	C343.985138,537.348206 339.045227,523.605713 334.062469,509.975616 
	C330.628448,510.374817 328.711090,512.437195 326.354889,513.578003 
	C315.181671,518.987976 304.233673,516.193970 298.014221,506.092590 
	C296.623230,503.833313 295.433380,501.406433 294.476746,498.930817 
	C289.753510,486.707672 282.796783,475.762054 275.384583,465.062592 
	C268.554596,455.203522 261.572083,445.449219 256.013428,434.766785 
	C244.304214,412.264557 243.379562,389.668121 254.979156,366.802673 
	C261.624634,353.702942 270.967255,342.686310 281.151703,332.302460 
	C300.487213,312.588318 321.346710,294.799377 345.932037,281.839325 
	C359.482361,274.696350 373.477173,271.986328 388.105469,278.648376 
	C391.150391,280.035095 393.671387,279.633118 396.441071,277.645416 
	C405.648987,271.037262 415.104065,264.754517 425.301300,259.765656 
	C457.557251,243.984848 491.261597,235.283478 527.547241,238.591263 
	C543.891785,240.081223 559.717224,243.459549 575.154480,248.937973 
	C594.298157,255.731750 611.838257,265.528656 628.438538,277.110718 
	C630.976746,278.881653 633.264221,280.243561 636.628235,278.533905 
	C645.511902,274.019104 654.900940,274.014893 664.342590,276.465179 
	C680.305298,280.607788 693.908325,289.290253 706.829712,299.120636 
	C729.054810,316.029205 749.953796,334.324310 765.855286,357.613556 
	C774.676086,370.532593 780.522522,384.637543 780.098694,400.505066 
	C779.716980,414.791138 774.756287,427.814758 767.098450,439.857513 
	C753.545654,461.170776 737.754517,481.055664 728.120300,504.845825 
	C723.409180,516.479187 708.309021,519.463379 697.795166,512.487305 
	C695.938171,511.255188 694.559692,509.045654 691.215454,509.125214 
	C683.306519,538.716980 668.008728,564.163269 645.134033,584.656006 
	C647.370667,587.847351 650.406311,588.484070 652.409546,590.474792 
	C655.681213,593.725830 657.758911,592.436157 659.574646,588.813721 
	C663.990356,580.004211 669.369568,571.746094 675.154175,563.811584 
	C683.928955,551.775513 693.627625,540.484863 706.934387,533.188477 
	C731.950684,519.471558 758.135803,524.194763 776.237732,545.688965 
	C789.637146,561.599304 792.703247,580.659180 789.823364,600.303284 
	C785.255859,631.458496 772.418396,659.523499 754.474976,685.311584 
	C743.533508,701.036682 730.050049,714.333069 715.476685,726.612244 
	C713.321411,728.428162 710.814087,730.088928 713.201355,733.363708 
	C713.779968,733.297546 714.172058,733.365601 714.413208,733.205933 
	C715.519470,732.472839 716.646790,731.750305 717.653198,730.891174 
	C733.693237,717.199097 747.866699,701.792114 760.027466,684.554871 
	C778.846924,657.879272 794.434021,629.539917 805.237183,598.602600 
	C819.377136,558.109497 826.390564,516.700867 823.945740,473.682587 
	C822.875977,454.859009 820.584290,436.291687 816.658936,417.913483 
	C808.829529,381.256805 795.528442,346.769714 774.771667,315.402496 
	C746.471558,272.636017 709.887512,238.724960 664.881165,214.115738 
	C611.103821,184.710617 553.892944,170.113998 492.247711,174.157791 
	C465.105896,175.938232 438.842224,181.453995 413.402405,190.652176 
	C339.517548,217.366486 283.057220,265.130280 242.922897,333.409760 
z"/>
<path fill="#FEFAE0" opacity="1.000000" stroke="none" 
	d="
M605.513062,500.605042 
	C606.163879,505.060760 603.983154,508.331451 602.382141,511.768494 
	C596.493591,524.409546 587.291260,534.043823 575.267395,540.909302 
	C571.680176,542.957520 569.703186,545.582397 568.353882,549.454102 
	C563.600403,563.093079 555.829285,574.659851 544.325134,583.711365 
	C523.937012,599.752930 497.868805,598.834290 478.635742,581.338928 
	C468.779175,572.372925 461.799957,561.641724 457.707947,549.032410 
	C456.613586,545.660095 454.751892,543.359497 451.653076,541.568665 
	C437.789307,533.556519 427.794647,522.042664 421.499817,507.326324 
	C418.799774,501.014038 420.210297,496.437256 425.540466,493.991028 
	C430.773712,491.589294 435.225861,493.587860 438.210419,500.018768 
	C442.739990,509.778687 449.289246,517.798096 458.264862,523.730774 
	C465.376770,528.431641 473.209045,531.009033 481.801331,530.081665 
	C499.463013,528.175598 502.264130,517.520569 503.592987,505.634186 
	C504.441895,498.041046 504.214325,498.015564 496.906250,495.680115 
	C480.703125,490.502075 472.376617,474.780579 477.209015,458.489227 
	C479.738892,449.960327 487.543274,444.402863 497.092072,443.671722 
	C507.402161,442.882294 517.662476,443.063293 527.970337,443.666412 
	C543.121460,444.552887 552.713379,458.068695 548.705444,473.575226 
	C545.654358,485.379791 538.106873,493.027588 526.321472,496.095886 
	C522.620239,497.059509 521.036865,498.531555 521.165283,502.511017 
	C521.295105,506.531494 521.701538,510.468201 522.523682,514.371887 
	C525.155579,526.868530 536.617737,531.150208 547.225159,530.396667 
	C567.404663,528.962891 579.294922,516.729675 587.376770,499.594696 
	C589.343140,495.425446 592.298096,492.660522 596.963318,493.001373 
	C601.267151,493.315796 604.429016,495.684601 605.513062,500.605042 
M502.616669,574.079773 
	C521.852173,579.207703 544.463684,565.868286 545.049622,548.794373 
	C523.416260,548.794373 501.795532,548.794373 479.329865,548.794373 
	C483.855957,560.684570 491.121094,568.795227 502.616669,574.079773 
z"/>
<path fill="#FEFAE0" opacity="1.000000" stroke="none" 
	d="
M731.941895,605.885681 
	C741.992065,611.688721 746.171265,621.105530 742.785461,629.735779 
	C739.026794,639.316345 726.464905,646.093018 716.259216,643.912720 
	C711.683838,642.935242 707.227051,641.465088 703.508667,638.484497 
	C697.380432,633.572083 692.870239,627.495300 694.225891,619.276733 
	C695.606812,610.905273 703.459534,604.412781 712.311951,602.793579 
	C719.121338,601.547913 725.529114,602.409119 731.941895,605.885681 
z"/>
<path fill="#FEFAE0" opacity="1.000000" stroke="none" 
	d="
M445.076538,440.981079 
	C434.815887,452.811859 419.933167,449.759094 414.337646,434.739716 
	C410.852753,425.385620 411.600952,416.010620 416.897705,407.408783 
	C424.053070,395.788574 439.675781,395.734894 446.427063,407.612976 
	C452.668945,418.594879 452.179077,429.878876 445.076538,440.981079 
z"/>
<path fill="#FEFAE0" opacity="1.000000" stroke="none" 
	d="
M613.234131,420.360046 
	C613.535950,427.799835 612.095154,434.338531 608.051025,440.163116 
	C600.219299,451.442810 585.567566,450.690369 579.132080,438.617310 
	C574.342285,429.631714 573.475525,420.358521 577.567627,410.828247 
	C580.847168,403.190338 587.180786,398.621918 594.311584,398.810699 
	C601.673279,399.005615 608.312378,404.074432 610.994812,411.749634 
	C611.922607,414.404297 612.479004,417.188751 613.234131,420.360046 
z"/>
<path fill="#FEFAE0" opacity="1.000000" stroke="none" 
	d="
M741.015381,555.640991 
	C746.248535,558.743347 748.950256,563.168213 747.957764,568.711548 
	C746.869751,574.788452 743.717163,579.897034 737.481506,582.298706 
	C736.243713,582.775513 735.017334,583.099731 733.607910,582.785889 
	C728.338196,581.612488 722.357544,574.430725 721.851440,568.522034 
	C721.379761,563.015686 725.326172,556.952209 730.578308,554.629333 
	C734.189087,553.032410 737.386719,554.236877 741.015381,555.640991 
z"/>
<path fill="#FEFAE0" opacity="1.000000" stroke="none" 
	d="
M704.860229,564.762817 
	C708.353271,563.759949 710.507141,565.004395 711.152344,568.099609 
	C712.266357,573.443298 715.297791,577.784302 718.019226,582.309265 
	C721.141235,587.500366 720.949097,590.714783 717.303223,594.348145 
	C713.863464,597.776062 708.289429,598.391418 703.988892,595.817993 
	C692.829041,589.140015 693.108704,573.298584 704.860229,564.762817 
z"/>
<path fill="#FEFAE0" opacity="1.000000" stroke="none" 
	d="
M746.187256,608.171692 
	C742.324890,607.455444 739.775757,605.583740 738.017517,602.484192 
	C735.750305,598.487366 735.609497,595.206421 739.849304,592.178284 
	C743.628723,589.478882 746.608765,585.860107 749.265991,581.982483 
	C752.223511,577.666748 756.061462,577.837219 759.190918,582.201599 
	C764.973816,590.266479 760.410645,603.389709 750.428894,607.275757 
	C749.213196,607.749084 747.871216,607.898010 746.187256,608.171692 
z"/>
</svg>